<?xml version="1.0" encoding="UTF-8" standalone="no"?>
<!DOCTYPE svg PUBLIC "-//W3C//DTD SVG 1.1//EN"
 "http://www.w3.org/Graphics/SVG/1.1/DTD/svg11.dtd">
<!-- Generated by graphviz version 2.40.1 (20161225.0304)
 -->
<!-- Title: G Pages: 1 -->
<svg width="1217pt" height="441pt"
 viewBox="0.00 0.00 1217.47 440.60" xmlns="http://www.w3.org/2000/svg" xmlns:xlink="http://www.w3.org/1999/xlink">
<g id="graph0" class="graph" transform="scale(1 1) rotate(0) translate(4 436.6)">
<title>G</title>
<polygon fill="#ffffff" stroke="transparent" points="-4,4 -4,-436.6 1213.4746,-436.6 1213.4746,4 -4,4"/>
<!-- login -->
<g id="node1" class="node">
<title>login</title>
<ellipse fill="#bdd6ff" stroke="#bdd6ff" cx="660.6156" cy="-341.6" rx="61.9563" ry="18"/>
<text text-anchor="middle" x="660.6156" y="-337.4" font-family="Times,serif" font-size="14.00" fill="#000000">Inicio Sesion</text>
</g>
<!-- home_recepcion -->
<g id="node3" class="node">
<title>home_recepcion</title>
<ellipse fill="#bdd6ff" stroke="#bdd6ff" cx="660.6156" cy="-268.6" rx="77.6117" ry="18"/>
<text text-anchor="middle" x="660.6156" y="-264.4" font-family="Times,serif" font-size="14.00" fill="#000000">Home Recepcion</text>
</g>
<!-- login&#45;&gt;home_recepcion -->
<g id="edge10" class="edge">
<title>login&#45;&gt;home_recepcion</title>
<path fill="none" stroke="#000000" d="M660.6156,-323.5551C660.6156,-315.4828 660.6156,-305.7764 660.6156,-296.7817"/>
<polygon fill="#000000" stroke="#000000" points="664.1157,-296.6903 660.6156,-286.6904 657.1157,-296.6904 664.1157,-296.6903"/>
</g>
<!-- usuario_recepcion -->
<g id="node2" class="node">
<title>usuario_recepcion</title>
<polygon fill="#d3d3d3" stroke="#000000" points="722.0182,-432.6 599.2129,-432.6 599.2129,-396.6 722.0182,-396.6 722.0182,-432.6"/>
<text text-anchor="middle" x="660.6156" y="-410.4" font-family="Times,serif" font-size="14.00" fill="#000000">Usuario Recepcion</text>
</g>
<!-- usuario_recepcion&#45;&gt;login -->
<g id="edge1" class="edge">
<title>usuario_recepcion&#45;&gt;login</title>
<path fill="none" stroke="#000000" d="M660.6156,-396.5551C660.6156,-388.4828 660.6156,-378.7764 660.6156,-369.7817"/>
<polygon fill="#000000" stroke="#000000" points="664.1157,-369.6903 660.6156,-359.6904 657.1157,-369.6904 664.1157,-369.6903"/>
</g>
<!-- lista_paciente -->
<g id="node4" class="node">
<title>lista_paciente</title>
<ellipse fill="#bdd6ff" stroke="#bdd6ff" cx="263.6156" cy="-195.6" rx="69.4535" ry="18"/>
<text text-anchor="middle" x="263.6156" y="-191.4" font-family="Times,serif" font-size="14.00" fill="#000000">Lista Pacientes</text>
</g>
<!-- home_recepcion&#45;&gt;lista_paciente -->
<g id="edge2" class="edge">
<title>home_recepcion&#45;&gt;lista_paciente</title>
<path fill="none" stroke="#00ff00" d="M599.4544,-257.3537C526.5993,-243.9572 405.3302,-221.6584 330.1764,-207.8391"/>
<polygon fill="#00ff00" stroke="#00ff00" points="330.8092,-204.3969 320.3411,-206.0306 329.5432,-211.2815 330.8092,-204.3969"/>
</g>
<!-- pagos -->
<g id="node15" class="node">
<title>pagos</title>
<ellipse fill="none" stroke="#000000" cx="780.6156" cy="-195.6" rx="34.2084" ry="18"/>
<text text-anchor="middle" x="780.6156" y="-191.4" font-family="Times,serif" font-size="14.00" fill="#000000">Pagos</text>
</g>
<!-- home_recepcion&#45;&gt;pagos -->
<g id="edge8" class="edge">
<title>home_recepcion&#45;&gt;pagos</title>
<path fill="none" stroke="#00ff00" d="M688.4476,-251.6688C706.7375,-240.5425 730.6893,-225.9718 749.5918,-214.4728"/>
<polygon fill="#00ff00" stroke="#00ff00" points="751.4258,-217.4539 758.1501,-209.2665 747.7877,-211.4736 751.4258,-217.4539"/>
</g>
<!-- gastos -->
<g id="node16" class="node">
<title>gastos</title>
<ellipse fill="none" stroke="#000000" cx="869.6156" cy="-195.6" rx="37.1367" ry="18"/>
<text text-anchor="middle" x="869.6156" y="-191.4" font-family="Times,serif" font-size="14.00" fill="#000000">Gastos</text>
</g>
<!-- home_recepcion&#45;&gt;gastos -->
<g id="edge9" class="edge">
<title>home_recepcion&#45;&gt;gastos</title>
<path fill="none" stroke="#00ff00" d="M706.1368,-253.8831C738.9392,-243.122 784.1863,-227.9574 823.6156,-213.6 826.0129,-212.7271 828.4742,-211.8139 830.9524,-210.8817"/>
<polygon fill="#00ff00" stroke="#00ff00" points="832.4013,-214.075 840.4936,-207.2365 829.903,-207.5359 832.4013,-214.075"/>
</g>
<!-- lista_de_citas -->
<g id="node19" class="node">
<title>lista_de_citas</title>
<ellipse fill="#bdd6ff" stroke="#bdd6ff" cx="447.6156" cy="-106.8" rx="64.2785" ry="18"/>
<text text-anchor="middle" x="447.6156" y="-102.6" font-family="Times,serif" font-size="14.00" fill="#000000">Lista de Citas</text>
</g>
<!-- home_recepcion&#45;&gt;lista_de_citas -->
<g id="edge14" class="edge">
<title>home_recepcion&#45;&gt;lista_de_citas</title>
<path fill="none" stroke="#00ff00" d="M635.7879,-251.2959C620.5982,-240.6031 600.8389,-226.5035 583.6156,-213.6 546.3821,-185.7052 504.3905,-152.4462 477.0454,-130.5393"/>
<polygon fill="#00ff00" stroke="#00ff00" points="479.0405,-127.6527 469.0507,-124.1235 474.6593,-133.1121 479.0405,-127.6527"/>
</g>
<!-- lista_doctores -->
<g id="node21" class="node">
<title>lista_doctores</title>
<ellipse fill="#bdd6ff" stroke="#bdd6ff" cx="660.6156" cy="-195.6" rx="67.7314" ry="18"/>
<text text-anchor="middle" x="660.6156" y="-191.4" font-family="Times,serif" font-size="14.00" fill="#000000">Lista Doctores</text>
</g>
<!-- home_recepcion&#45;&gt;lista_doctores -->
<g id="edge24" class="edge">
<title>home_recepcion&#45;&gt;lista_doctores</title>
<path fill="none" stroke="#00ff00" d="M660.6156,-250.5551C660.6156,-242.4828 660.6156,-232.7764 660.6156,-223.7817"/>
<polygon fill="#00ff00" stroke="#00ff00" points="664.1157,-223.6903 660.6156,-213.6904 657.1157,-223.6904 664.1157,-223.6903"/>
</g>
<!-- citas_paciente -->
<g id="node5" class="node">
<title>citas_paciente</title>
<ellipse fill="#bdd6ff" stroke="#bdd6ff" cx="263.6156" cy="-106.8" rx="66.0231" ry="18"/>
<text text-anchor="middle" x="263.6156" y="-102.6" font-family="Times,serif" font-size="14.00" fill="#000000">Citas Paciente</text>
</g>
<!-- lista_paciente&#45;&gt;citas_paciente -->
<g id="edge3" class="edge">
<title>lista_paciente&#45;&gt;citas_paciente</title>
<path fill="none" stroke="#00ff00" d="M263.6156,-177.2006C263.6156,-165.0949 263.6156,-149.0076 263.6156,-135.2674"/>
<polygon fill="#00ff00" stroke="#00ff00" points="267.1157,-134.872 263.6156,-124.872 260.1157,-134.8721 267.1157,-134.872"/>
<text text-anchor="middle" x="321.7254" y="-147" font-family="Times,serif" font-size="14.00" fill="#000000">Seleccionar Paciente</text>
</g>
<!-- lista_doctores_paciente -->
<g id="node6" class="node">
<title>lista_doctores_paciente</title>
<ellipse fill="#bdd6ff" stroke="#bdd6ff" cx="67.6156" cy="-106.8" rx="67.7314" ry="18"/>
<text text-anchor="middle" x="67.6156" y="-102.6" font-family="Times,serif" font-size="14.00" fill="#000000">Lista Doctores</text>
</g>
<!-- lista_paciente&#45;&gt;lista_doctores_paciente -->
<g id="edge4" class="edge">
<title>lista_paciente&#45;&gt;lista_doctores_paciente</title>
<path fill="none" stroke="#00ff00" d="M229.0259,-179.9288C196.239,-165.0743 146.8574,-142.7014 111.3527,-126.6156"/>
<polygon fill="#00ff00" stroke="#00ff00" points="112.7417,-123.4025 102.1886,-122.4637 109.8529,-129.7786 112.7417,-123.4025"/>
<text text-anchor="middle" x="221.13" y="-147" font-family="Times,serif" font-size="14.00" fill="#000000">Agendar Cita</text>
</g>
<!-- cancelar_cita -->
<g id="node7" class="node">
<title>cancelar_cita</title>
<ellipse fill="#bdd6ff" stroke="#bdd6ff" cx="260.6156" cy="-18" rx="63.7184" ry="18"/>
<text text-anchor="middle" x="260.6156" y="-13.8" font-family="Times,serif" font-size="14.00" fill="#000000">Cancelar Cita</text>
</g>
<!-- citas_paciente&#45;&gt;cancelar_cita -->
<g id="edge5" class="edge">
<title>citas_paciente&#45;&gt;cancelar_cita</title>
<path fill="none" stroke="#00ff00" d="M262.994,-88.4006C262.585,-76.2949 262.0415,-60.2076 261.5773,-46.4674"/>
<polygon fill="#00ff00" stroke="#00ff00" points="265.0619,-45.9481 261.2261,-36.072 258.0659,-46.1845 265.0619,-45.9481"/>
</g>
<!-- confirmar_cita_paciente -->
<g id="node8" class="node">
<title>confirmar_cita_paciente</title>
<ellipse fill="#bdd6ff" stroke="#bdd6ff" cx="447.6156" cy="-18" rx="104.7887" ry="18"/>
<text text-anchor="middle" x="447.6156" y="-13.8" font-family="Times,serif" font-size="14.00" fill="#000000">Confirmar Cita Paciente</text>
</g>
<!-- citas_paciente&#45;&gt;confirmar_cita_paciente -->
<g id="edge6" class="edge">
<title>citas_paciente&#45;&gt;confirmar_cita_paciente</title>
<path fill="none" stroke="#00ff00" d="M276.3527,-88.9205C285.4841,-77.3547 298.7591,-62.8559 313.6156,-54 328.4044,-45.1845 345.3803,-38.4852 362.1694,-33.4078"/>
<polygon fill="#00ff00" stroke="#00ff00" points="363.3572,-36.7087 372.015,-30.6019 361.4386,-29.9767 363.3572,-36.7087"/>
</g>
<!-- calendario_cita -->
<g id="node9" class="node">
<title>calendario_cita</title>
<ellipse fill="#bdd6ff" stroke="#bdd6ff" cx="106.6156" cy="-18" rx="71.8259" ry="18"/>
<text text-anchor="middle" x="106.6156" y="-13.8" font-family="Times,serif" font-size="14.00" fill="#000000">Calendario Cita</text>
</g>
<!-- citas_paciente&#45;&gt;calendario_cita -->
<g id="edge7" class="edge">
<title>citas_paciente&#45;&gt;calendario_cita</title>
<path fill="none" stroke="#000000" d="M216.4292,-94.2096C199.0456,-88.4694 179.6415,-80.7068 163.375,-70.8 150.9178,-63.2132 138.8357,-52.5874 129.0435,-42.8553"/>
<polygon fill="#000000" stroke="#000000" points="131.5163,-40.3777 122.0335,-35.6524 126.4998,-45.2599 131.5163,-40.3777"/>
<text text-anchor="middle" x="211.2359" y="-58.2" font-family="Times,serif" font-size="14.00" fill="#000000">Re&#45;Agendar Cita</text>
</g>
<!-- lista_doctores_paciente&#45;&gt;calendario_cita -->
<g id="edge11" class="edge">
<title>lista_doctores_paciente&#45;&gt;calendario_cita</title>
<path fill="none" stroke="#00ff00" d="M39.827,-90.1862C26.6899,-80.1423 15.5355,-66.8355 23.9458,-54 29.1122,-46.1151 36.4225,-39.9478 44.582,-35.1262"/>
<polygon fill="#00ff00" stroke="#00ff00" points="46.4345,-38.1085 53.7081,-30.4049 43.218,-31.8912 46.4345,-38.1085"/>
<text text-anchor="middle" x="78.4505" y="-58.2" font-family="Times,serif" font-size="14.00" fill="#000000">Seleccionar Doctor</text>
</g>
<!-- cancelar_cita_paciente -->
<g id="node10" class="node">
<title>cancelar_cita_paciente</title>
<ellipse fill="#bdd6ff" stroke="#bdd6ff" cx="772.6156" cy="-18" rx="63.7184" ry="18"/>
<text text-anchor="middle" x="772.6156" y="-13.8" font-family="Times,serif" font-size="14.00" fill="#000000">Cancelar Cita</text>
</g>
<!-- calendario_doctor -->
<g id="node11" class="node">
<title>calendario_doctor</title>
<ellipse fill="#bdd6ff" stroke="#bdd6ff" cx="612.6156" cy="-106.8" rx="82.7645" ry="18"/>
<text text-anchor="middle" x="612.6156" y="-102.6" font-family="Times,serif" font-size="14.00" fill="#000000">Calendario Doctor</text>
</g>
<!-- editar_info_doctor -->
<g id="node12" class="node">
<title>editar_info_doctor</title>
<ellipse fill="#bdd6ff" stroke="#bdd6ff" cx="795.6156" cy="-106.8" rx="82.2237" ry="18"/>
<text text-anchor="middle" x="795.6156" y="-102.6" font-family="Times,serif" font-size="14.00" fill="#000000">Editar Info Doctor</text>
</g>
<!-- configurar_horario -->
<g id="node13" class="node">
<title>configurar_horario</title>
<ellipse fill="#bdd6ff" stroke="#bdd6ff" cx="981.6156" cy="-106.8" rx="85.6961" ry="18"/>
<text text-anchor="middle" x="981.6156" y="-102.6" font-family="Times,serif" font-size="14.00" fill="#000000">Configurar Horario</text>
</g>
<!-- citas_doctor -->
<g id="node14" class="node">
<title>citas_doctor</title>
<ellipse fill="#bdd6ff" stroke="#bdd6ff" cx="1145.6156" cy="-106.8" rx="60.2283" ry="18"/>
<text text-anchor="middle" x="1145.6156" y="-102.6" font-family="Times,serif" font-size="14.00" fill="#000000">Citas Doctor</text>
</g>
<!-- confirmar_cita_doctor -->
<g id="node17" class="node">
<title>confirmar_cita_doctor</title>
<ellipse fill="#bdd6ff" stroke="#bdd6ff" cx="959.6156" cy="-18" rx="98.9936" ry="18"/>
<text text-anchor="middle" x="959.6156" y="-13.8" font-family="Times,serif" font-size="14.00" fill="#000000">Confirmar Cita Doctor</text>
</g>
<!-- citas_doctor&#45;&gt;confirmar_cita_doctor -->
<g id="edge13" class="edge">
<title>citas_doctor&#45;&gt;confirmar_cita_doctor</title>
<path fill="none" stroke="#00ff00" d="M1113.641,-91.5347C1083.4497,-77.1208 1037.8956,-55.3724 1004.1531,-39.2631"/>
<polygon fill="#00ff00" stroke="#00ff00" points="1005.504,-36.0296 994.9717,-34.8797 1002.4881,-42.3467 1005.504,-36.0296"/>
</g>
<!-- cancelar_cita_doctor -->
<g id="node18" class="node">
<title>cancelar_cita_doctor</title>
<ellipse fill="#bdd6ff" stroke="#bdd6ff" cx="1145.6156" cy="-18" rx="63.7184" ry="18"/>
<text text-anchor="middle" x="1145.6156" y="-13.8" font-family="Times,serif" font-size="14.00" fill="#000000">Cancelar Cita</text>
</g>
<!-- citas_doctor&#45;&gt;cancelar_cita_doctor -->
<g id="edge12" class="edge">
<title>citas_doctor&#45;&gt;cancelar_cita_doctor</title>
<path fill="none" stroke="#00ff00" d="M1145.6156,-88.4006C1145.6156,-76.2949 1145.6156,-60.2076 1145.6156,-46.4674"/>
<polygon fill="#00ff00" stroke="#00ff00" points="1149.1157,-46.072 1145.6156,-36.072 1142.1157,-46.0721 1149.1157,-46.072"/>
</g>
<!-- lista_de_citas&#45;&gt;confirmar_cita_paciente -->
<g id="edge15" class="edge">
<title>lista_de_citas&#45;&gt;confirmar_cita_paciente</title>
<path fill="none" stroke="#00ff00" d="M447.6156,-88.4006C447.6156,-76.2949 447.6156,-60.2076 447.6156,-46.4674"/>
<polygon fill="#00ff00" stroke="#00ff00" points="451.1157,-46.072 447.6156,-36.072 444.1157,-46.0721 451.1157,-46.072"/>
</g>
<!-- lista_de_citas&#45;&gt;calendario_cita -->
<g id="edge19" class="edge">
<title>lista_de_citas&#45;&gt;calendario_cita</title>
<path fill="none" stroke="#000000" d="M403.6809,-93.5747C366.3054,-82.4889 311.1289,-66.5119 262.6156,-54 245.087,-49.4793 205.0101,-40.2391 169.8681,-32.2524"/>
<polygon fill="#000000" stroke="#000000" points="170.6366,-28.8379 160.1099,-30.038 169.0874,-35.6643 170.6366,-28.8379"/>
<text text-anchor="middle" x="372.2359" y="-58.2" font-family="Times,serif" font-size="14.00" fill="#000000">Re&#45;Agendar Cita</text>
</g>
<!-- lista_de_citas&#45;&gt;cancelar_cita_paciente -->
<g id="edge18" class="edge">
<title>lista_de_citas&#45;&gt;cancelar_cita_paciente</title>
<path fill="none" stroke="#00ff00" d="M493.835,-94.1714C552.5559,-78.1271 653.8181,-50.4591 716.7901,-33.2532"/>
<polygon fill="#00ff00" stroke="#00ff00" points="717.8317,-36.597 726.5556,-30.585 715.9867,-29.8445 717.8317,-36.597"/>
</g>
<!-- lista_de_citas&#45;&gt;confirmar_cita_doctor -->
<g id="edge16" class="edge">
<title>lista_de_citas&#45;&gt;confirmar_cita_doctor</title>
<path fill="none" stroke="#00ff00" d="M495.0027,-94.5184C503.5033,-92.4859 512.3015,-90.4925 520.6156,-88.8 537.8149,-85.2987 752.1827,-51.0327 874.8623,-31.4857"/>
<polygon fill="#00ff00" stroke="#00ff00" points="875.6602,-34.9028 884.985,-29.8731 874.5589,-27.99 875.6602,-34.9028"/>
</g>
<!-- Aceptar Cita -->
<g id="node20" class="node">
<title>Aceptar Cita</title>
<ellipse fill="none" stroke="#000000" cx="630.6156" cy="-18" rx="60.2071" ry="18"/>
<text text-anchor="middle" x="630.6156" y="-13.8" font-family="Times,serif" font-size="14.00" fill="#000000">Aceptar Cita</text>
</g>
<!-- lista_de_citas&#45;&gt;Aceptar Cita -->
<g id="edge17" class="edge">
<title>lista_de_citas&#45;&gt;Aceptar Cita</title>
<path fill="none" stroke="#000000" d="M479.9111,-91.1288C510.4496,-76.3101 556.4075,-54.0092 589.5396,-37.9319"/>
<polygon fill="#000000" stroke="#000000" points="591.4804,-40.8806 598.9491,-33.366 588.4244,-34.5828 591.4804,-40.8806"/>
</g>
<!-- lista_doctores&#45;&gt;calendario_doctor -->
<g id="edge20" class="edge">
<title>lista_doctores&#45;&gt;calendario_doctor</title>
<path fill="none" stroke="#00ff00" d="M650.9021,-177.63C644.0707,-164.9919 634.8113,-147.862 627.1096,-133.614"/>
<polygon fill="#00ff00" stroke="#00ff00" points="630.1489,-131.876 622.3147,-124.7433 623.9909,-135.2047 630.1489,-131.876"/>
<text text-anchor="middle" x="679.13" y="-147" font-family="Times,serif" font-size="14.00" fill="#000000">Agendar Cita</text>
</g>
<!-- lista_doctores&#45;&gt;editar_info_doctor -->
<g id="edge21" class="edge">
<title>lista_doctores&#45;&gt;editar_info_doctor</title>
<path fill="none" stroke="#00ff00" d="M688.9598,-179.1693C699.0514,-173.1685 710.4339,-166.2259 720.6156,-159.6 734.958,-150.2665 750.4748,-139.4651 763.653,-130.0729"/>
<polygon fill="#00ff00" stroke="#00ff00" points="765.8502,-132.8042 771.9393,-124.1339 761.7724,-127.1146 765.8502,-132.8042"/>
</g>
<!-- lista_doctores&#45;&gt;configurar_horario -->
<g id="edge22" class="edge">
<title>lista_doctores&#45;&gt;configurar_horario</title>
<path fill="none" stroke="#00ff00" d="M707.6355,-182.5926C763.8372,-167.0452 858.0468,-140.9835 920.0178,-123.8401"/>
<polygon fill="#00ff00" stroke="#00ff00" points="920.9714,-127.2079 929.6762,-121.1683 919.105,-120.4612 920.9714,-127.2079"/>
</g>
<!-- lista_doctores&#45;&gt;citas_doctor -->
<g id="edge23" class="edge">
<title>lista_doctores&#45;&gt;citas_doctor</title>
<path fill="none" stroke="#00ff00" d="M710.6163,-183.3368C719.5809,-181.3023 728.8562,-179.3035 737.6156,-177.6 887.2946,-148.4913 927.3205,-155.8177 1076.6156,-124.8 1081.3656,-123.8131 1086.2782,-122.7066 1091.1923,-121.5402"/>
<polygon fill="#00ff00" stroke="#00ff00" points="1092.3499,-124.8602 1101.2298,-119.081 1090.6841,-118.0613 1092.3499,-124.8602"/>
<text text-anchor="middle" x="986.0041" y="-147" font-family="Times,serif" font-size="14.00" fill="#000000">Citas</text>
</g>
</g>
</svg>

